<svg width="144" height="124" viewBox="0 0 144 124" fill="none" xmlns="http://www.w3.org/2000/svg">
<g filter="url(#filter0_d_4_604)">
<rect x="40" width="64" height="64" rx="32" fill="#2A2A2A" shape-rendering="crispEdges"/>
<path d="M58.5 35.75C58.3 35.75 58.125 35.675 57.975 35.525C57.825 35.375 57.75 35.2 57.75 35C57.75 34.8 57.825 34.625 57.975 34.475C58.125 34.325 58.3 34.25 58.5 34.25C58.7 34.25 58.875 34.325 59.025 34.475C59.175 34.625 59.25 34.8 59.25 35C59.25 35.2 59.175 35.375 59.025 35.525C58.875 35.675 58.7 35.75 58.5 35.75V35.75M58.5 29.75C58.3 29.75 58.125 29.675 57.975 29.525C57.825 29.375 57.75 29.2 57.75 29C57.75 28.8 57.825 28.625 57.975 28.475C58.125 28.325 58.3 28.25 58.5 28.25C58.7 28.25 58.875 28.325 59.025 28.475C59.175 28.625 59.25 28.8 59.25 29C59.25 29.2 59.175 29.375 59.025 29.525C58.875 29.675 58.7 29.75 58.5 29.75V29.75M63 42.5C62.575 42.5 62.2188 42.3563 61.9313 42.0688C61.6438 41.7813 61.5 41.425 61.5 41C61.5 40.575 61.6438 40.2187 61.9313 39.9312C62.2188 39.6437 62.575 39.5 63 39.5C63.425 39.5 63.7812 39.6437 64.0687 39.9312C64.3562 40.2187 64.5 40.575 64.5 41C64.5 41.425 64.3562 41.7813 64.0687 42.0688C63.7812 42.3563 63.425 42.5 63 42.5V42.5M63 36.5C62.575 36.5 62.2188 36.3563 61.9313 36.0688C61.6438 35.7813 61.5 35.425 61.5 35C61.5 34.575 61.6438 34.2187 61.9313 33.9312C62.2188 33.6437 62.575 33.5 63 33.5C63.425 33.5 63.7812 33.6437 64.0687 33.9312C64.3562 34.2187 64.5 34.575 64.5 35C64.5 35.425 64.3562 35.7813 64.0687 36.0688C63.7812 36.3563 63.425 36.5 63 36.5V36.5M63 30.5C62.575 30.5 62.2188 30.3563 61.9313 30.0688C61.6438 29.7813 61.5 29.425 61.5 29C61.5 28.575 61.6438 28.2187 61.9313 27.9312C62.2188 27.6437 62.575 27.5 63 27.5C63.425 27.5 63.7812 27.6437 64.0687 27.9312C64.3562 28.2187 64.5 28.575 64.5 29C64.5 29.425 64.3562 29.7813 64.0687 30.0688C63.7812 30.3563 63.425 30.5 63 30.5V30.5M63 24.5C62.575 24.5 62.2188 24.3562 61.9313 24.0687C61.6438 23.7812 61.5 23.425 61.5 23C61.5 22.575 61.6438 22.2188 61.9313 21.9313C62.2188 21.6438 62.575 21.5 63 21.5C63.425 21.5 63.7812 21.6438 64.0687 21.9313C64.3562 22.2188 64.5 22.575 64.5 23C64.5 23.425 64.3562 23.7812 64.0687 24.0687C63.7812 24.3562 63.425 24.5 63 24.5V24.5M69 37.25C68.375 37.25 67.8438 37.0312 67.4062 36.5938C66.9688 36.1562 66.75 35.625 66.75 35C66.75 34.375 66.9688 33.8438 67.4062 33.4062C67.8438 32.9688 68.375 32.75 69 32.75C69.625 32.75 70.1562 32.9688 70.5938 33.4062C71.0312 33.8438 71.25 34.375 71.25 35C71.25 35.625 71.0312 36.1562 70.5938 36.5938C70.1562 37.0312 69.625 37.25 69 37.25V37.25M69 31.25C68.375 31.25 67.8438 31.0312 67.4062 30.5938C66.9688 30.1562 66.75 29.625 66.75 29C66.75 28.375 66.9688 27.8438 67.4062 27.4062C67.8438 26.9688 68.375 26.75 69 26.75C69.625 26.75 70.1562 26.9688 70.5938 27.4062C71.0312 27.8438 71.25 28.375 71.25 29C71.25 29.625 71.0312 30.1562 70.5938 30.5938C70.1562 31.0312 69.625 31.25 69 31.25V31.25M69 42.5C68.575 42.5 68.2187 42.3563 67.9312 42.0688C67.6437 41.7813 67.5 41.425 67.5 41C67.5 40.575 67.6437 40.2187 67.9312 39.9312C68.2187 39.6437 68.575 39.5 69 39.5C69.425 39.5 69.7813 39.6437 70.0688 39.9312C70.3563 40.2187 70.5 40.575 70.5 41C70.5 41.425 70.3563 41.7813 70.0688 42.0688C69.7813 42.3563 69.425 42.5 69 42.5V42.5M69 24.5C68.575 24.5 68.2187 24.3562 67.9312 24.0687C67.6437 23.7812 67.5 23.425 67.5 23C67.5 22.575 67.6437 22.2188 67.9312 21.9313C68.2187 21.6438 68.575 21.5 69 21.5C69.425 21.5 69.7813 21.6438 70.0688 21.9313C70.3563 22.2188 70.5 22.575 70.5 23C70.5 23.425 70.3563 23.7812 70.0688 24.0687C69.7813 24.3562 69.425 24.5 69 24.5V24.5M69 46.25C68.8 46.25 68.625 46.175 68.475 46.025C68.325 45.875 68.25 45.7 68.25 45.5C68.25 45.3 68.325 45.125 68.475 44.975C68.625 44.825 68.8 44.75 69 44.75C69.2 44.75 69.375 44.825 69.525 44.975C69.675 45.125 69.75 45.3 69.75 45.5C69.75 45.7 69.675 45.875 69.525 46.025C69.375 46.175 69.2 46.25 69 46.25V46.25M69 19.25C68.8 19.25 68.625 19.175 68.475 19.025C68.325 18.875 68.25 18.7 68.25 18.5C68.25 18.3 68.325 18.125 68.475 17.975C68.625 17.825 68.8 17.75 69 17.75C69.2 17.75 69.375 17.825 69.525 17.975C69.675 18.125 69.75 18.3 69.75 18.5C69.75 18.7 69.675 18.875 69.525 19.025C69.375 19.175 69.2 19.25 69 19.25V19.25M75 37.25C74.375 37.25 73.8438 37.0312 73.4062 36.5938C72.9688 36.1562 72.75 35.625 72.75 35C72.75 34.375 72.9688 33.8438 73.4062 33.4062C73.8438 32.9688 74.375 32.75 75 32.75C75.625 32.75 76.1562 32.9688 76.5938 33.4062C77.0312 33.8438 77.25 34.375 77.25 35C77.25 35.625 77.0312 36.1562 76.5938 36.5938C76.1562 37.0312 75.625 37.25 75 37.25V37.25M75 31.25C74.375 31.25 73.8438 31.0312 73.4062 30.5938C72.9688 30.1562 72.75 29.625 72.75 29C72.75 28.375 72.9688 27.8438 73.4062 27.4062C73.8438 26.9688 74.375 26.75 75 26.75C75.625 26.75 76.1562 26.9688 76.5938 27.4062C77.0312 27.8438 77.25 28.375 77.25 29C77.25 29.625 77.0312 30.1562 76.5938 30.5938C76.1562 31.0312 75.625 31.25 75 31.25V31.25M75 42.5C74.575 42.5 74.2187 42.3563 73.9312 42.0688C73.6437 41.7813 73.5 41.425 73.5 41C73.5 40.575 73.6437 40.2187 73.9312 39.9312C74.2187 39.6437 74.575 39.5 75 39.5C75.425 39.5 75.7813 39.6437 76.0688 39.9312C76.3563 40.2187 76.5 40.575 76.5 41C76.5 41.425 76.3563 41.7813 76.0688 42.0688C75.7813 42.3563 75.425 42.5 75 42.5V42.5M75 24.5C74.575 24.5 74.2187 24.3562 73.9312 24.0687C73.6437 23.7812 73.5 23.425 73.5 23C73.5 22.575 73.6437 22.2188 73.9312 21.9313C74.2187 21.6438 74.575 21.5 75 21.5C75.425 21.5 75.7813 21.6438 76.0688 21.9313C76.3563 22.2188 76.5 22.575 76.5 23C76.5 23.425 76.3563 23.7812 76.0688 24.0687C75.7813 24.3562 75.425 24.5 75 24.5V24.5M75 46.25C74.8 46.25 74.625 46.175 74.475 46.025C74.325 45.875 74.25 45.7 74.25 45.5C74.25 45.3 74.325 45.125 74.475 44.975C74.625 44.825 74.8 44.75 75 44.75C75.2 44.75 75.375 44.825 75.525 44.975C75.675 45.125 75.75 45.3 75.75 45.5C75.75 45.7 75.675 45.875 75.525 46.025C75.375 46.175 75.2 46.25 75 46.25V46.25M75 19.25C74.8 19.25 74.625 19.175 74.475 19.025C74.325 18.875 74.25 18.7 74.25 18.5C74.25 18.3 74.325 18.125 74.475 17.975C74.625 17.825 74.8 17.75 75 17.75C75.2 17.75 75.375 17.825 75.525 17.975C75.675 18.125 75.75 18.3 75.75 18.5C75.75 18.7 75.675 18.875 75.525 19.025C75.375 19.175 75.2 19.25 75 19.25V19.25M81 42.5C80.575 42.5 80.2187 42.3563 79.9312 42.0688C79.6437 41.7813 79.5 41.425 79.5 41C79.5 40.575 79.6437 40.2187 79.9312 39.9312C80.2187 39.6437 80.575 39.5 81 39.5C81.425 39.5 81.7813 39.6437 82.0688 39.9312C82.3563 40.2187 82.5 40.575 82.5 41C82.5 41.425 82.3563 41.7813 82.0688 42.0688C81.7813 42.3563 81.425 42.5 81 42.5V42.5M81 36.5C80.575 36.5 80.2187 36.3563 79.9312 36.0688C79.6437 35.7813 79.5 35.425 79.5 35C79.5 34.575 79.6437 34.2187 79.9312 33.9312C80.2187 33.6437 80.575 33.5 81 33.5C81.425 33.5 81.7813 33.6437 82.0688 33.9312C82.3563 34.2187 82.5 34.575 82.5 35C82.5 35.425 82.3563 35.7813 82.0688 36.0688C81.7813 36.3563 81.425 36.5 81 36.5V36.5M81 30.5C80.575 30.5 80.2187 30.3563 79.9312 30.0688C79.6437 29.7813 79.5 29.425 79.5 29C79.5 28.575 79.6437 28.2187 79.9312 27.9312C80.2187 27.6437 80.575 27.5 81 27.5C81.425 27.5 81.7813 27.6437 82.0688 27.9312C82.3563 28.2187 82.5 28.575 82.5 29C82.5 29.425 82.3563 29.7813 82.0688 30.0688C81.7813 30.3563 81.425 30.5 81 30.5V30.5M81 24.5C80.575 24.5 80.2187 24.3562 79.9312 24.0687C79.6437 23.7812 79.5 23.425 79.5 23C79.5 22.575 79.6437 22.2188 79.9312 21.9313C80.2187 21.6438 80.575 21.5 81 21.5C81.425 21.5 81.7813 21.6438 82.0688 21.9313C82.3563 22.2188 82.5 22.575 82.5 23C82.5 23.425 82.3563 23.7812 82.0688 24.0687C81.7813 24.3562 81.425 24.5 81 24.5V24.5M85.5 35.75C85.3 35.75 85.125 35.675 84.975 35.525C84.825 35.375 84.75 35.2 84.75 35C84.75 34.8 84.825 34.625 84.975 34.475C85.125 34.325 85.3 34.25 85.5 34.25C85.7 34.25 85.875 34.325 86.025 34.475C86.175 34.625 86.25 34.8 86.25 35C86.25 35.2 86.175 35.375 86.025 35.525C85.875 35.675 85.7 35.75 85.5 35.75V35.75M85.5 29.75C85.3 29.75 85.125 29.675 84.975 29.525C84.825 29.375 84.75 29.2 84.75 29C84.75 28.8 84.825 28.625 84.975 28.475C85.125 28.325 85.3 28.25 85.5 28.25C85.7 28.25 85.875 28.325 86.025 28.475C86.175 28.625 86.25 28.8 86.25 29C86.25 29.2 86.175 29.375 86.025 29.525C85.875 29.675 85.7 29.75 85.5 29.75V29.75" fill="#BDC2FF"/>
</g>
<defs>
<filter id="filter0_d_4_604" x="0" y="-20" width="144" height="144" filterUnits="userSpaceOnUse" color-interpolation-filters="sRGB">
<feFlood flood-opacity="0" result="BackgroundImageFix"/>
<feColorMatrix in="SourceAlpha" type="matrix" values="0 0 0 0 0 0 0 0 0 0 0 0 0 0 0 0 0 0 127 0" result="hardAlpha"/>
<feOffset dy="20"/>
<feGaussianBlur stdDeviation="20"/>
<feComposite in2="hardAlpha" operator="out"/>
<feColorMatrix type="matrix" values="0 0 0 0 0.741176 0 0 0 0 0.760784 0 0 0 0 1 0 0 0 0.04 0"/>
<feBlend mode="normal" in2="BackgroundImageFix" result="effect1_dropShadow_4_604"/>
<feBlend mode="normal" in="SourceGraphic" in2="effect1_dropShadow_4_604" result="shape"/>
</filter>
</defs>
</svg>
